{"title":"Aloha.2015.BRRip.480p.x264.AAC-VYTO [P2PDL]","uid":12211548,"size":400745708,"categoryP":"video","categoryS":"movies","magnet":"?xt=urn:btih:4c35cfbdb7a0e54c713fbbadf0e8116af52542de&amp;dn=Aloha.2015.BRRip.480p.x264.AAC-VYTO+%5BP2PDL%5D&amp;tr=udp%3A%2F%2Ftracker.openbittorrent.com%3A80&amp;tr=udp%3A%2F%2Fopen.demonii.com%3A1337&amp;tr=udp%3A%2F%2Ftracker.coppersurfer.tk%3A6969&amp;tr=udp%3A%2F%2Fexodus.desync.com%3A6969","seeders":2,"leechers":2,"uploader":"ValidusVyto","files":7,"time":1439101353,"description":"____    ____ ____    ____ .___________.  ______   \n     /   /      /   / |           | /  __    \n    /   /      /   /  `---|  |----`|  |  |  | \n        /     _    _/       |  |     |  |  |  | \n       /        |  |         |  |     |  `--'  | \n    __/         |__|         |__|      ______/  \n                                                  \nPresenting Small Encodes with quality for years!\n                                                                                                   \n                                                                                                   \n\nAloha.2015.BRRip.480p.x264.AAC-VYTO\n\n\nGenre: Comedy, Drama, Romance &lt;a href=&quot;\nhttp://www.imdb.com/title/tt1243974/&quot; rel=&quot;nofollow&quot; target=&quot;_NEW&quot;&gt;\nhttp://www.imdb.com/title/tt1243974/&lt;/a&gt;\n\n\nGeneral\nFormat                         : MPEG-4\nFile size                      : 376 MiB\nDuration                       : 1h 44mn\nOverall bit rate               : 503 Kbps\n\nVideo\nFormat                         : AVC\nBit rate                       : 468 Kbps\nWidth                          : 720 pixels\nHeight                         : 384 pixels\nDisplay aspect ratio           : 1.85:1\nFrame rate mode                : Constant\nFrame rate                     : 23.976 fps\nBit depth                      : 8 bits\nStream size                    : 350 MiB (93%)\nWriting library                : x264 core 148 r2579\n\nAudio\nFormat                         : AAC\nBit rate mode                  : Variable\nBit rate                       : 32.0 Kbps\nChannel(s)                     : 2 channels\nChannel positions              : Front: L R \nSampling rate                  : 48.0 KHz \nStream size                    : 24.0 MiB (6%)\nLanguage                       : English\n\nSubtitle                       : Yes\nSource                         : 720p.BluRay.x264-DRONES\t\t\t\n\nScreenshots:\n &lt;a href=&quot;\nhttp://ititli.com/jQ&quot; rel=&quot;nofollow&quot; target=&quot;_NEW&quot;&gt;\nhttp://ititli.com/jQ&lt;/a&gt; &lt;a href=&quot;\nhttp://ititli.com/jS&quot; rel=&quot;nofollow&quot; target=&quot;_NEW&quot;&gt;\nhttp://ititli.com/jS&lt;/a&gt; &lt;a href=&quot;\nhttp://ititli.com/jZ&quot; rel=&quot;nofollow&quot; target=&quot;_NEW&quot;&gt;\nhttp://ititli.com/jZ&lt;/a&gt; &lt;a href=&quot;\nhttp://ititli.com/jc&quot; rel=&quot;nofollow&quot; target=&quot;_NEW&quot;&gt;\nhttp://ititli.com/jc&lt;/a&gt; &lt;a href=&quot;\nhttp://ititli.com/ji&quot; rel=&quot;nofollow&quot; target=&quot;_NEW&quot;&gt;\nhttp://ititli.com/ji&lt;/a&gt; &lt;a href=&quot;\nhttp://ititli.com/jp&quot; rel=&quot;nofollow&quot; target=&quot;_NEW&quot;&gt;\nhttp://ititli.com/jp&lt;/a&gt; &lt;a href=&quot;\nhttp://ititli.com/jD&quot; rel=&quot;nofollow&quot; target=&quot;_NEW&quot;&gt;\nhttp://ititli.com/jD&lt;/a&gt; &lt;a href=&quot;\nhttp://ititli.com/ja&quot; rel=&quot;nofollow&quot; target=&quot;_NEW&quot;&gt;\nhttp://ititli.com/ja&lt;/a&gt; &lt;a href=&quot;\nhttp://ititli.com/jb&quot; rel=&quot;nofollow&quot; target=&quot;_NEW&quot;&gt;\nhttp://ititli.com/jb&lt;/a&gt; &lt;a href=&quot;\nhttp://ititli.com/jz&quot; rel=&quot;nofollow&quot; target=&quot;_NEW&quot;&gt;\nhttp://ititli.com/jz&lt;/a&gt; &lt;a href=&quot;\nhttp://ititli.com/jI&quot; rel=&quot;nofollow&quot; target=&quot;_NEW&quot;&gt;\nhttp://ititli.com/jI&lt;/a&gt; &lt;a href=&quot;\nhttp://ititli.com/jO&quot; rel=&quot;nofollow&quot; target=&quot;_NEW&quot;&gt;\nhttp://ititli.com/jO&lt;/a&gt;\n\n----------------------------------------------------------------------------------------------------\n\n\nEncoder Notes: Looking For Early Access To Anything You Can Provide DVDScr, R5, DVDR, BluRay, Direct\nAudio, Music Releases and Seedboxes. If You Got anything to offer please contact us.\n\nSupport us by donating BC - 1FgwdzPsd1y25Gea8wP1qni35uGCtmkRCD","torrent":{"xt":"urn:btih:4c35cfbdb7a0e54c713fbbadf0e8116af52542de","amp;dn":"Aloha.2015.BRRip.480p.x264.AAC-VYTO+%5BP2PDL%5D","amp;tr":["udp%3A%2F%2Ftracker.openbittorrent.com%3A80","udp%3A%2F%2Fopen.demonii.com%3A1337","udp%3A%2F%2Ftracker.coppersurfer.tk%3A6969","udp%3A%2F%2Fexodus.desync.com%3A6969"],"infoHash":"4c35cfbdb7a0e54c713fbbadf0e8116af52542de","infoHashBuffer":{"type":"Buffer","data":[76,53,207,189,183,160,229,76,113,63,187,173,240,232,17,106,245,37,66,222]},"announce":[],"urlList":[]}}